<svg xmlns="http://www.w3.org/2000/svg" xmlns:xlink="http://www.w3.org/1999/xlink" version="1.1" x="0px" y="0px" viewBox="0 0 64 80" style="enable-background:new 0 0 64 64;" xml:space="preserve"><path d="M6,28c2.206,0,4-1.794,4-4s-1.794-4-4-4s-4,1.794-4,4S3.794,28,6,28z M6,22c1.103,0,2,0.897,2,2s-0.897,2-2,2s-2-0.897-2-2  S4.897,22,6,22z"/><path d="M16,20c-2.206,0-4,1.794-4,4s1.794,4,4,4s4-1.794,4-4S18.206,20,16,20z M16,26c-1.103,0-2-0.897-2-2s0.897-2,2-2  s2,0.897,2,2S17.103,26,16,26z"/><rect x="6" y="34" width="2" height="6"/><rect x="10" y="34" width="2" height="6"/><rect x="14" y="34" width="2" height="6"/><rect x="31.586" y="25" transform="matrix(0.7071 -0.7071 0.7071 0.7071 -8.7193 30.9497)" width="2.828" height="2"/><rect x="32" y="46.586" transform="matrix(0.7071 -0.7071 0.7071 0.7071 -24.2757 37.3934)" width="2" height="2.828"/><rect x="36" y="50.586" transform="matrix(0.7071 -0.7071 0.7071 0.7071 -25.9325 41.3934)" width="2" height="2.828"/><rect x="35.586" y="21" transform="matrix(0.7071 -0.7071 0.7071 0.7071 -4.7193 32.6066)" width="2.828" height="2"/><path d="M62,2h-2v7h-2V7V2h-2v4H46V2h-2v5v2h-2V2h-2v60h2v-3h2v3h2v-6h10v6h2v-3h2v3h2V2z M60,11v4h-2v-4H60z M44,51h-2v-4h2V51z   M56,30H46V20h10V30z M44,19v2h-2v-4h2V19z M44,23v4h-2v-4H44z M44,29v2v2h-2v-4H44z M44,35v4h-2v-4H44z M44,41v2v2h-2v-4H44z   M46,32h10v10H46V32z M58,47h2v4h-2V47z M58,45v-2v-2h2v4H58z M58,39v-4h2v4H58z M58,33v-2v-2h2v4H58z M58,27v-4h2v4H58z M58,21v-2  v-2h2v4H58z M56,8v10H46V8H56z M44,11v4h-2v-4H44z M42,57v-4h2v2v2H42z M46,54V44h10v10H46z M58,57v-2v-2h2v4H58z"/><path d="M2.822,56.569L11,44.757l8.178,11.812l1.645-1.139L12.909,44H19c0.552,0,1-0.447,1-1v-4.036l9.412,6.845  C29.586,45.936,29.792,46,30,46c0.155,0,0.311-0.036,0.454-0.109C30.789,45.721,31,45.376,31,45V29c0-0.376-0.211-0.721-0.546-0.891  c-0.334-0.171-0.737-0.139-1.042,0.082L20,35.036V31c0-0.553-0.448-1-1-1H3c-0.552,0-1,0.447-1,1v12c0,0.553,0.448,1,1,1h6.091  L1.178,55.431L2.822,56.569z M29,30.964v12.072L20.7,37L29,30.964z M4,32h14v10H4V32z"/><path d="M2.058,10.927c0.026,0.229,0.059,0.457,0.104,0.681c0.001,0.007,0.004,0.014,0.005,0.021  c0.312,1.514,1.055,2.906,2.174,4.025c0.001,0.001,0.001,0.001,0.001,0.002c1.292,1.293,2.951,2.084,4.741,2.287  c0.035,0.004,0.069,0.012,0.105,0.016C9.457,17.986,9.727,18,10,18c0.273,0,0.543-0.014,0.811-0.041  c0.037-0.004,0.073-0.012,0.111-0.016c0.231-0.026,0.461-0.059,0.688-0.105c0.003-0.001,0.007-0.002,0.01-0.003  c1.519-0.311,2.916-1.056,4.037-2.178c0.003-0.003,0.003-0.006,0.006-0.009c0.002-0.002,0.004-0.002,0.006-0.004  c1.1-1.106,1.834-2.477,2.151-3.966c0.005-0.025,0.013-0.049,0.018-0.074c0.043-0.214,0.074-0.432,0.1-0.651  c0.006-0.049,0.016-0.096,0.021-0.144C17.986,10.542,18,10.272,18,10s-0.014-0.542-0.041-0.809  c-0.005-0.048-0.015-0.095-0.021-0.143c-0.026-0.219-0.056-0.438-0.1-0.652c-0.005-0.025-0.013-0.049-0.018-0.074  c-0.317-1.49-1.051-2.861-2.151-3.966c-0.002-0.002-0.004-0.002-0.006-0.004c-0.003-0.003-0.003-0.006-0.006-0.009  c-1.121-1.121-2.518-1.867-4.037-2.178c-0.003-0.001-0.007-0.002-0.01-0.003c-0.226-0.046-0.456-0.079-0.688-0.105  c-0.037-0.004-0.073-0.013-0.111-0.016C10.543,2.014,10.273,2,10,2C9.727,2,9.457,2.014,9.189,2.041  C9.153,2.045,9.119,2.052,9.084,2.057C7.293,2.26,5.635,3.05,4.343,4.344C4.342,4.344,4.342,4.345,4.341,4.346  C3.223,5.464,2.48,6.857,2.168,8.371C2.166,8.378,2.164,8.384,2.163,8.391C2.117,8.616,2.085,8.844,2.058,9.073  C2.054,9.112,2.045,9.15,2.041,9.189C2.014,9.457,2,9.727,2,10s0.014,0.543,0.041,0.811C2.045,10.85,2.054,10.888,2.058,10.927z   M6.788,4.94c0.384-0.245,0.798-0.446,1.235-0.599c0.077-0.027,0.153-0.057,0.231-0.081c0.106-0.032,0.216-0.057,0.324-0.084  c0.102-0.025,0.203-0.05,0.307-0.069C8.924,4.101,8.962,4.097,9,4.09v2.175C8.659,6.342,8.336,6.462,8.037,6.623L6.529,5.115  c0.031-0.022,0.059-0.046,0.09-0.068C6.674,5.009,6.732,4.976,6.788,4.94z M11.114,4.108c0.103,0.019,0.205,0.045,0.307,0.069  c0.109,0.027,0.218,0.051,0.324,0.084c0.078,0.024,0.154,0.054,0.231,0.081c0.437,0.153,0.851,0.354,1.235,0.599  c0.056,0.036,0.114,0.069,0.169,0.107c0.031,0.021,0.06,0.046,0.09,0.068l-1.566,1.567C11.625,6.52,11.322,6.396,11,6.311V4.09  C11.038,4.097,11.076,4.101,11.114,4.108z M13.383,14.951c-0.059,0.041-0.121,0.076-0.182,0.115c-0.38,0.241-0.789,0.44-1.221,0.591  c-0.079,0.028-0.156,0.058-0.236,0.083c-0.106,0.032-0.215,0.057-0.323,0.083c-0.102,0.025-0.204,0.05-0.307,0.069  c-0.038,0.007-0.076,0.011-0.114,0.017v-1.889c0.401-0.106,0.774-0.273,1.109-0.497l1.361,1.362  C13.441,14.907,13.413,14.93,13.383,14.951z M8.886,15.892c-0.103-0.019-0.205-0.045-0.307-0.069  c-0.109-0.027-0.218-0.051-0.324-0.084c-0.078-0.024-0.154-0.054-0.231-0.081c-0.437-0.153-0.851-0.354-1.235-0.599  c-0.056-0.036-0.114-0.069-0.169-0.107c-0.031-0.021-0.06-0.046-0.09-0.068l1.288-1.287C8.174,13.82,8.571,13.98,9,14.072v1.837  C8.962,15.903,8.924,15.899,8.886,15.892z M9.875,8.167c0.033,0.004,0.07,0.007,0.091,0.007c0.001,0,0.002-0.001,0.003,0  c0.002,0,0.004,0.001,0.006,0.001c0.537,0.013,0.971,0.188,1.29,0.524C11.267,8.7,11.268,8.7,11.268,8.701  c0,0,0.001,0.001,0.001,0.002c0.318,0.336,0.508,0.813,0.533,1.346c0.026,0.553-0.132,1.09-0.436,1.473c0,0,0,0.001-0.001,0.002  c0,0.001-0.001,0.001-0.002,0.001c-0.323,0.407-0.791,0.62-1.388,0.635c-0.004,0-0.007,0.002-0.011,0.002  c-0.028,0.001-0.056,0.002-0.094,0.006c-0.575-0.01-1.031-0.205-1.359-0.58c0,0,0-0.001-0.001-0.001  c-0.334-0.383-0.509-0.943-0.479-1.537c0.027-0.561,0.237-1.056,0.59-1.397C8.622,8.651,8.623,8.651,8.624,8.65  C8.952,8.333,9.362,8.176,9.875,8.167z M15.893,11.107c-0.021,0.111-0.048,0.22-0.074,0.329c-0.025,0.1-0.047,0.201-0.077,0.299  c-0.029,0.096-0.065,0.188-0.098,0.282c-0.145,0.403-0.331,0.786-0.554,1.145c-0.047,0.075-0.091,0.151-0.141,0.224  c-0.018,0.026-0.038,0.05-0.056,0.075l-1.481-1.475c0.145-0.311,0.251-0.642,0.316-0.986h2.182  C15.904,11.036,15.9,11.072,15.893,11.107z M13.65,9c-0.084-0.308-0.202-0.602-0.351-0.875l1.593-1.586  c0.018,0.026,0.038,0.049,0.056,0.075c0.05,0.073,0.094,0.148,0.14,0.223c0.224,0.359,0.41,0.742,0.555,1.146  c0.033,0.094,0.069,0.186,0.098,0.282c0.03,0.098,0.052,0.199,0.077,0.299c0.027,0.109,0.054,0.218,0.074,0.329  C15.9,8.928,15.904,8.964,15.91,9H13.65z M4.107,8.893c0.021-0.111,0.048-0.22,0.074-0.33C4.206,8.462,4.229,8.36,4.259,8.261  c0.027-0.091,0.062-0.179,0.094-0.268c0.149-0.417,0.341-0.812,0.573-1.18c0.042-0.066,0.081-0.134,0.125-0.199  c0.02-0.029,0.043-0.056,0.063-0.085L6.6,8.015C6.42,8.318,6.281,8.649,6.185,9H4.09C4.096,8.964,4.1,8.928,4.107,8.893z   M6.476,12.109l-1.362,1.361c-0.02-0.029-0.043-0.055-0.063-0.085c-0.044-0.065-0.084-0.132-0.125-0.199  c-0.232-0.369-0.425-0.764-0.573-1.18c-0.032-0.089-0.066-0.177-0.094-0.268c-0.03-0.099-0.053-0.201-0.078-0.302  c-0.027-0.109-0.054-0.219-0.074-0.33C4.1,11.072,4.096,11.036,4.09,11h2.015C6.179,11.391,6.304,11.766,6.476,12.109z"/><path d="M36.938,10.953c0.006-0.049,0.016-0.096,0.021-0.144C36.986,10.542,37,10.272,37,10s-0.014-0.542-0.041-0.809  c-0.005-0.048-0.015-0.095-0.021-0.143c-0.026-0.219-0.056-0.438-0.1-0.652c-0.005-0.025-0.013-0.049-0.018-0.074  c-0.317-1.49-1.051-2.861-2.151-3.966c-0.002-0.002-0.004-0.003-0.006-0.004c-0.002-0.003-0.003-0.006-0.006-0.008  c-1.121-1.121-2.518-1.867-4.037-2.178c-0.003-0.001-0.007-0.002-0.01-0.003c-0.226-0.046-0.456-0.079-0.688-0.105  c-0.037-0.004-0.073-0.013-0.111-0.016C29.543,2.014,29.273,2,29,2c-0.273,0-0.543,0.014-0.811,0.041  c-0.035,0.004-0.069,0.011-0.105,0.016c-1.791,0.203-3.449,0.994-4.741,2.287c-0.001,0.001-0.001,0.001-0.001,0.002  c-1.118,1.119-1.862,2.511-2.174,4.025c-0.001,0.007-0.004,0.014-0.005,0.021c-0.046,0.224-0.078,0.452-0.104,0.681  c-0.005,0.039-0.013,0.077-0.017,0.117C21.014,9.457,21,9.727,21,10s0.014,0.543,0.041,0.811c0.004,0.039,0.013,0.077,0.017,0.117  c0.026,0.229,0.059,0.457,0.104,0.681c0.001,0.007,0.004,0.014,0.005,0.021c0.312,1.514,1.055,2.906,2.174,4.025  c0.001,0.001,0.001,0.001,0.001,0.002c1.292,1.293,2.951,2.084,4.741,2.287c0.035,0.004,0.069,0.012,0.105,0.016  C28.457,17.986,28.727,18,29,18c0.273,0,0.543-0.014,0.811-0.041c0.037-0.004,0.073-0.012,0.111-0.016  c0.231-0.026,0.461-0.059,0.688-0.105c0.003-0.001,0.007-0.002,0.01-0.003c1.519-0.311,2.916-1.056,4.037-2.178  c0.003-0.003,0.003-0.006,0.006-0.009c0.002-0.002,0.004-0.002,0.006-0.004c1.1-1.106,1.834-2.477,2.151-3.966  c0.005-0.025,0.013-0.049,0.018-0.074C36.882,11.39,36.912,11.172,36.938,10.953z M32.383,14.951  c-0.059,0.041-0.121,0.076-0.182,0.115c-0.38,0.241-0.789,0.44-1.221,0.591c-0.079,0.028-0.156,0.058-0.236,0.083  c-0.106,0.032-0.215,0.057-0.323,0.083c-0.102,0.025-0.204,0.05-0.307,0.069c-0.038,0.007-0.076,0.011-0.114,0.017v-2.194  c0.331-0.082,0.644-0.204,0.934-0.367l1.537,1.537C32.441,14.907,32.413,14.93,32.383,14.951z M27.886,15.892  c-0.103-0.019-0.205-0.045-0.307-0.069c-0.109-0.027-0.218-0.051-0.324-0.084c-0.078-0.024-0.154-0.054-0.231-0.081  c-0.437-0.153-0.851-0.354-1.235-0.599c-0.056-0.036-0.114-0.069-0.169-0.107c-0.031-0.021-0.06-0.046-0.09-0.068l1.536-1.536  c0.29,0.162,0.603,0.285,0.935,0.366v2.194C27.962,15.903,27.924,15.899,27.886,15.892z M25.788,4.94  c0.384-0.245,0.798-0.446,1.235-0.599c0.077-0.027,0.153-0.057,0.231-0.081c0.106-0.032,0.216-0.057,0.324-0.084  c0.102-0.025,0.203-0.05,0.307-0.069C27.924,4.101,27.962,4.097,28,4.09v1.86c-0.414,0.101-0.8,0.266-1.146,0.489L26.134,5.72  l-0.605-0.605c0.031-0.022,0.059-0.046,0.09-0.068C25.674,5.009,25.732,4.976,25.788,4.94z M30.114,4.108  c0.104,0.019,0.205,0.045,0.307,0.069c0.108,0.026,0.217,0.051,0.323,0.083c0.08,0.024,0.157,0.055,0.236,0.083  c0.432,0.152,0.841,0.35,1.221,0.591c0.06,0.038,0.122,0.074,0.182,0.115c0.03,0.021,0.058,0.044,0.088,0.065l-1.324,1.324  C30.8,6.215,30.415,6.051,30,5.95V4.09C30.038,4.097,30.076,4.101,30.114,4.108z M34.819,11.437c-0.025,0.1-0.047,0.201-0.077,0.299  c-0.029,0.096-0.065,0.188-0.098,0.282c-0.145,0.403-0.331,0.786-0.554,1.145c-0.047,0.075-0.091,0.151-0.141,0.224  c-0.018,0.026-0.038,0.05-0.056,0.075l-1.541-1.536c0.163-0.288,0.291-0.599,0.381-0.926h2.177c-0.006,0.036-0.01,0.072-0.016,0.107  C34.873,11.218,34.846,11.327,34.819,11.437z M29,11.833c-0.55,0-0.982-0.166-1.322-0.507c0,0-0.001,0-0.001-0.001  c-0.337-0.34-0.537-0.827-0.563-1.373c-0.027-0.576,0.14-1.125,0.458-1.508c0,0,0,0,0,0C27.91,8.039,28.391,7.833,29,7.833  c0.611,0,1.091,0.205,1.428,0.609c0,0,0,0,0,0c0.001,0.001,0.001,0.003,0.003,0.005c0.317,0.382,0.482,0.93,0.454,1.504  c0,0,0,0,0,0.001c0,0,0,0,0,0c-0.026,0.544-0.226,1.03-0.561,1.369c-0.001,0.001-0.001,0.002-0.002,0.002c0,0-0.001,0-0.001,0.001  C29.986,11.662,29.541,11.833,29,11.833z M32.473,7.953l1.42-1.414c0.018,0.026,0.038,0.049,0.056,0.075  c0.05,0.073,0.094,0.148,0.14,0.223c0.224,0.359,0.41,0.742,0.555,1.146c0.033,0.094,0.069,0.186,0.098,0.282  c0.03,0.098,0.052,0.199,0.077,0.299c0.027,0.109,0.054,0.218,0.074,0.329C34.9,8.928,34.904,8.964,34.91,9h-2.096  C32.746,8.632,32.631,8.28,32.473,7.953z M23.107,8.893c0.021-0.112,0.048-0.221,0.075-0.331c0.025-0.1,0.047-0.201,0.077-0.3  c0.028-0.094,0.064-0.186,0.097-0.278c0.146-0.406,0.333-0.792,0.558-1.152c0.046-0.074,0.09-0.15,0.14-0.222  c0.019-0.028,0.041-0.053,0.06-0.081l1.418,1.417C25.372,8.275,25.256,8.63,25.187,9H23.09C23.096,8.964,23.1,8.928,23.107,8.893z   M25.267,11c0.091,0.33,0.22,0.643,0.385,0.934l-0.684,0.684l-0.853,0.852c-0.02-0.027-0.041-0.053-0.061-0.081  c-0.049-0.07-0.091-0.144-0.137-0.216c-0.228-0.364-0.417-0.754-0.564-1.165c-0.032-0.09-0.067-0.179-0.094-0.27  c-0.03-0.099-0.053-0.201-0.078-0.302c-0.027-0.109-0.054-0.219-0.074-0.33C23.1,11.072,23.096,11.036,23.09,11H25.267z"/><text x="0" y="79" fill="#000000" font-size="5px" font-weight="bold" font-family="'Helvetica Neue', Helvetica, Arial-Unicode, Arial, Sans-serif">Created by Becris</text><text x="0" y="84" fill="#000000" font-size="5px" font-weight="bold" font-family="'Helvetica Neue', Helvetica, Arial-Unicode, Arial, Sans-serif">from the Noun Project</text></svg>