<svg xmlns="http://www.w3.org/2000/svg" xmlns:xlink="http://www.w3.org/1999/xlink" version="1.1" x="0px" y="0px" viewBox="0 0 100 125" enable-background="new 0 0 100 100" xml:space="preserve"><g><path d="M86.2,45c0-0.6-0.1-1.4-0.4-2c-0.3-0.7-0.6-0.4-1.3-0.5c-1.1-0.3-1.8-1.5-2.7-2c-0.4-0.2-0.6-0.2-1-0.2c-0.4,0-0.6,0-1-0.1   c-0.3,0-0.4,0-0.7-0.1c-0.2-0.1-0.3-0.2-0.5-0.3c-0.3,0-0.6,0.3-0.9,0c-0.2-0.2-0.4-1.6-0.8-1c-0.6-0.4-2.4-1.4-3-0.4   c0-0.2,0.2-0.5,0.1-0.6c-0.1-0.3-0.4-0.1-0.7-0.3c-0.2-0.1-0.5-0.6-0.8-0.5c0-0.3,0.2-0.7,0.1-1.1c0-0.3-0.2-0.5-0.5-0.8   c-0.2-0.3-0.4-0.4-0.5-0.8c-0.1-0.3-0.1-0.7-0.2-1c-0.2-0.5-1-1-1.4-1.4c-0.6-0.4-1.4-0.7-2.1-0.8c-0.7,0-1.2,0.2-1.9-0.1   c-0.3-0.2-0.6-0.5-0.9-0.7c-0.2-0.2-0.1-0.1-0.3-0.3C65,30,65,29.8,64.9,29.7c-0.2-0.3-0.7-0.6-1-0.8c-0.2-0.1-0.4-0.2-0.5-0.2   c-0.1,0-0.2,0.1-0.3,0c-0.2-0.2,0-0.5-0.1-0.7c-0.1-0.3-0.5-0.3-0.6-0.6c0.6-0.1,0.5-0.4,0.5-1c-0.3,0-0.5,0-0.7,0.2   c0.3,0.3,0.1,0.4-0.2,0.6c-0.4,0.2-0.4,0-0.7-0.3c0.3,0,0.6-0.1,0.9-0.2c-0.3-0.2-0.8-0.1-1.1-0.1c-0.1,0-0.8,0.1-0.8,0.1   c-0.4,0.1-0.2,0.1-0.4,0.2c-0.9,0.6-1.1-0.1-1.8-0.2c-0.5-0.1-1.2,0.3-1.5,0c-0.1-0.1,0-0.4-0.1-0.5c-0.1-0.2-0.3-0.3-0.5-0.3   c-0.1,0-0.6,0-0.6-0.1c-0.1-0.1,0-0.4-0.1-0.5c-0.4-0.4-0.5,0.2-0.3,0.6c-0.4,0.2-0.9,0.3-1.3,0.6c-0.1-0.2-0.2-0.4-0.3-0.6   c0.3-0.1,0.9-0.3,0.7-0.7c-0.2-0.4-0.6-0.2-0.8-0.1c-0.3,0.2-0.4,0.4-0.8,0.6c-0.2,0.1-0.3,0.3-0.5,0.3c-0.1,0-0.4-0.1-0.5-0.1   c-0.1,0-0.2,0.1-0.2,0.1c0,0.2-0.1,0.3-0.2,0.2c-0.1,0-0.2-0.1-0.4,0c-0.3,0.1-0.5,0.5-0.6,0.8c-0.1,0.2,0,0.7-0.1,0.9   c0,0.1-0.3,0.1-0.4,0.2c-0.3,0.3-0.8,0.7-0.6,1c-0.5-0.1-0.8-0.8-1.2-1.1c-0.4-0.2-1-0.4-1.4-0.2c-0.4,0.2-0.9,0.7-1.3,0.7   c-0.5,0-0.5-0.7-0.7-0.1c-0.3-0.5-0.7-0.8-1-1.3c-0.4-0.6-0.6-0.9-0.4-1.6c0.1-0.6,0.1-1.1,0.1-1.7c0-0.2,0.2-0.4,0.2-0.7   c0.1-0.4-0.2-0.6,0.1-0.8c-0.7-0.7-1.2-1-2.1-1c-0.3,0-0.3-0.1-0.6-0.1c-0.4,0.1-0.6,0.2-1,0.2c-0.2,0-0.4-0.1-0.7-0.1   c-0.1,0.2-0.2,0.2-0.4,0.1c-0.1-0.1-0.3-0.1-0.4,0c0.1-0.3,0.4-0.4,0.5-0.8c0.1-0.4,0-0.8,0-1.2c0.6,0.3,0.6-2.3,0.9-2.6   c0,0.1,0.1,0.2,0.1,0.3c0.3-0.3,0.3-0.5,0.2-0.8c-0.1-0.6,0-0.6-0.6-0.6c-0.6-0.1-1.9,0-2.5,0.4c-0.5,0.4-0.2,1.2-0.6,1.8   c-0.5,0.8-1.6,0.8-2.4,1c-0.5,0.1-0.6,0.3-1,0c-0.1-0.1-0.2-0.2-0.3-0.2c-0.2-0.1-0.4-0.1-0.6-0.1c-0.2-0.1-0.4-0.5-0.6-0.8   c-0.2-0.4-0.4-0.6-0.6-1c-0.2-0.2-0.2-0.4-0.3-0.6c0-0.1,0-0.3,0-0.4c-0.1-0.1-0.1-0.2-0.2-0.2c-0.2-0.5-0.2-0.7-0.2-1.2   c0-0.5,0-1,0.1-1.5c0.1-0.4,0.6-1.2,0.4-1.6c-0.4,0.1-1.3-0.2-1.6-0.5c-0.3-0.3-0.4-0.9-0.6-1.2c-0.5-0.7-1.5-2.9-2.7-2.1   c-0.2,0.1-0.2,0.6-0.4,0.7c-0.3,0.1-0.6-0.2-0.8-0.3c-0.6-0.4-0.6-1-1.1-1.4c-0.5-0.4-1-1-1.6-1c-0.2,0-0.8-0.1-1,0   c-0.1,0.1-0.1,0.3-0.1,0.3c-0.2,0.1-0.4,0.1-0.7,0.1c-0.8,0-1.5,0.1-2.3-0.2c-0.9-0.3-1.8-0.6-2.7-0.9c-0.5-0.2,0.6-0.2-0.5-0.2   c-0.2,0-0.4,0-0.6,0.1c-0.3,0-0.8,0-1,0.1c-0.5,0.2-0.1,0.3,0,0.7c0.1,0.3,0.2,0.5,0.3,0.8c0.2,0.5,0.5,1.3,0.9,1.7   c0.3,0.3,1.5,0.8,1.2,1.5c-0.2,0.4-0.8,0-0.6,0.5c0.1,0.3,0.8,0.7,1,0.9c0.6,0.3,1.5,0.5,1.5,1.3c0,0.3-0.2,0.6,0,0.9   c0.2,0.2,0.7,0.3,0.9,0.5c0.3,0.2,0.6,0.5,0.8,0.8c0.2,0.3,0,0.4,0.4,0.4c0.8-0.1,0.1-1.2-0.1-1.6c-0.2,0.2-0.3,0-0.5-0.2   c-0.1,0-0.2,0.2-0.1,0.4c-0.3-0.2-0.1-0.2-0.2-0.4c0.2-0.1,0.2-0.2,0.1-0.3c0-0.1-0.1-0.1-0.1-0.1c-0.2-0.4-0.4-0.5-0.3-1   c-0.1,0-1.3-1.5-1.4-1.7c-0.1-0.2-0.3-0.6-0.4-0.8c-0.2-0.4-0.2-0.7-0.5-1.1c-0.6,0.8-1.3-1.6-1-2.1c0.4,0.3,0.7,0.3,1,0.5   c0.3,0.2,0.2,0.1,0.3,0.4c0.1,0.3,0.2,0.6,0.4,1c0.1,0.3,0.1,0.5,0.2,0.8c0,0.1-0.1,0.2,0,0.4c0.1,0.1,0.2,0.1,0.3,0   c0.1,0.1,0.4,0.3,0.6,0.5c0.2,0.2,0.4,0.6,0.8,0.4c0,0.5,0.2,0.5,0.5,0.8c0.1,0.1,0.1,0.3,0.2,0.4c0.1,0.1,0.3-0.1,0.4,0.1   c0.1,0.3-0.2,0.5,0,0.8c0.2,0.4,0.8,0.5,1,0.8c0.6,0.8,1.8,1.5,2.2,2.4c0.1,0.2,0,0.4,0.1,0.6c0.1,0.1,0.2,0.3,0.3,0.4   c0.1,0.4-0.3,0.6,0,0.9c-0.7,0.2,0.1,1.2,0.4,1.4c0.3,0.2,0.7,0.4,1,0.7c0.4,0.3,0.7,0.5,1.1,0.6c0.8,0.2,1.3,0.8,2.1,1.1   c0.3,0.1,0.7,0.2,1,0.3c0.4,0.1,0.7,0.4,1.1,0.6c0.3,0.1,0.7,0.3,1,0.3c0.5,0.1,0.8-0.3,1.2-0.4c1-0.4,1.7,0.4,2.3,1.1   c0.3,0.3,0.6,0.8,1,0.9c0.4,0.2,0.8,0.1,1.3,0.3c0.4,0.2,2,1,2.2,0.4c0.3,0.3-0.2,0.2-0.1,0.5c0.1,0.2,0.5,0.4,0.6,0.6   c0.3,0.3,0.8,0.8,1.1,1.2c0,0.1-0.1,0.2-0.1,0.2c0.2,0.1,0.3,0.2,0.2,0.3c0,0.1-0.2,0.2-0.2,0.4c0,0.5,0.8,0.8,1,0.4   c0,0.5,0.7,0.6,0.9,1c0.1,0.2,0,0.3,0.1,0.5c0.1,0.1,0.5,0.3,0.6,0.4c0-0.1,0.1-0.2,0.1-0.3c0.4,0.1,0.6,0.1,0.9,0.3   c0.2,0.2,0.4,0.4,0.7,0.6c0.2,0.1-0.1,0.2,0.2,0.3c0.1,0,0.3-0.1,0.4-0.2c0.5-0.3,0.2-0.4-0.1-0.9c0.6-0.2,1.1-1.4,1.7-0.3   c0.2,0.4,0.2,0.8,0.5,1.2c0.1,0.2,0.3,0.4,0.4,0.6c0.1,0.3,0,0.2,0,0.5c0,0.1,0,0.1,0.1,0.2c0.2,0.1,0.2,0.3,0,0.4   c-0.2,0.1-0.2,0.2,0,0.3c0,0.1,0,0.2,0.1,0.2c0,0.3-0.1,0.5-0.1,0.7c0,0.1-0.1,0.1-0.1,0.2c0.1,0.2,0.2,0.3,0.3,0.5   c0,0.3-0.5,0.9-0.7,1c-0.4,0.3-0.7,0.1-0.6,0.8c-0.5-0.1-0.4,0.3-0.2,0.5c-0.3,0.2-1,0.3-1.1,0.6c-0.1,0.2,0,0.6-0.1,0.8   c0,0.1-0.2,0.3-0.3,0.4c-0.1,0.1-0.1,0.3-0.1,0.4c0,0.1-0.2,0.1-0.3,0.2c-0.1,0.4,0.4,1-0.1,1.2c0.3,0.2,0.7,0.5,0.7,0.9   c0.1-0.1,0.2-0.1,0.3-0.2c-0.1,0.7-1.2,0.8-1.3,1.7c0,0.2,0.2,0.5,0.2,0.8c0,0.2,0.1,0.3,0.1,0.4c0,0.2-0.2,0.2,0,0.5   c0.2,0.3,0.8,0.5,1.1,0.8c0.3,0.4,0.5,0.9,0.8,1.3c0.5,0.8,0.7,1.8,1.1,2.7c0.2,0.5,0.5,1.1,0.8,1.6c0.2,0.4,0.4,0.7,0.4,1.2   c0,0.3-0.1-0.1,0,0.4c0.1,0.2,0.3,0.5,0.4,0.7c1.1,1.3,2.8,1.7,3.9,2.8c0.2,0.2,0.7,0.6,0.9,0.9c0.2,0.3,0.1,0.9,0.2,1.3   c0.1,1.1,0.1,2.3-0.2,3.3c-0.2,0.6-0.1,1.3-0.1,2.1c0,0.8-0.2,1.8-0.4,2.6c-0.1,0.4-0.2,0.8-0.4,1.1c-0.1,0.5,0,0.4,0,0.9   c0.1,0.6-0.2,0.5-0.3,0.8c-0.1,0.5,0.1,1,0.1,1.5c0.1,0.7-0.1,1.3-0.2,2c-0.2,0.8-0.6,1.7-0.9,2.5c-0.1,0.2-0.1,0.3-0.3,0.5   c0,0.1,0,0.1,0,0.2c0,0.3-0.1,0.4-0.4,0.3c-0.2,0.3,0,0.7,0.1,1.1c0,0.3,0.3,1,0.2,1.3c-0.1,0.4-0.4,0.6-0.5,1.1   c0,0.2-0.1,0.4-0.1,0.6c0,0.2,0.2,0.4,0.2,0.5c0-0.1-0.3,0.4-0.3,0.5c-0.1,0.3,0,0.4-0.1,0.7c0,0.1-0.2,0.4-0.2,0.5   c0,0.1,0.6,0.2,0.7,0.2c0.2-0.1,0.2-0.6,0.1-0.8c0.3-0.1,0.2-0.5,0.1-0.8c0.2,0,0.4-0.1,0.4-0.3c0.3,0.3,0,1.5-0.2,2   c-0.2,0.4,0,1.2-0.6,0.9c0.1-0.2,0.3-0.8-0.2-0.7c-0.4,0.1,0,0.2-0.1,0.4c-0.1,0.1-0.6,0.3-0.6,0.4c-0.1,0.3,0.2,0.1,0.3,0.4   c0.1,0.2,0,0.4-0.1,0.5c-0.1,0.2-0.2,0.2-0.3,0.4c-0.1,0-0.1,0-0.2,0.1c0,0.1,0,0.2,0,0.2c-0.1,0.1-0.5,0.5-0.5,0.5   c-0.1,0.4,0.3,0.6,0.5,0.1c0.3,0.2,0.9,0.3,0.6,0.8c-0.2,0.3-0.3,0-0.5,0.1c0,0-0.2,0.3-0.2,0.3c-0.1,0.2-0.2,0.5-0.2,0.8   c0,0.6,0.1,1,0.2,1.5c0,0.2-0.1,0.4,0,0.6c0.1,0,0.2,0,0.3,0c0.1,0.1,0.1,0.3,0.2,0.4c-0.7-0.1-0.3,0.8,0.1,1.1   c0.2,0.1,0.2-0.1,0.5,0c0.3,0.1,0.2,0.4,0.5,0.5c-0.5,0.2-1.3-0.5-0.7,0.2c0.4,0.5,0.3-0.1,0.7,0.3c-0.5,0.2,0,0.4,0.3,0.6   c-0.1,0.1-0.1,0.2-0.1,0.3c0.5,0,0.7-0.1,0.9,0.3c0.5-0.2,0.4-0.1,0.6,0.2c0.2-0.1,0.3,0,0.3,0.2c0.2,0.1,0.4,0.1,0.5,0.2   c0.3,0.1,0.5,0,0.8,0c0.2,0.1,0.5,0.3,0.8,0.3c0.1,0,0.3,0,0.5,0c0.5,0.1,0.7,0.4,1.3,0.4c-0.1-0.2,0-0.4-0.3-0.4   c-0.2,0-0.3,0.2-0.3,0.2c-0.2,0-0.1,0.5-0.2-0.4c0.5,0,1,0.3,1.2-0.2c0.1,0,0.1,0.1,0,0.2c0.2,0.1,0.2,0,0.3-0.1   c0.1,0,0.3-0.2,0.5-0.2c0.4-0.1,0.6,0.1,0.7-0.4c-0.9,0-2-0.4-2.6-1.1c-0.2-0.3-0.2-0.7-0.6-0.9c-0.3-0.1-0.4,0.2-0.6-0.2   c0.3,0,0.6,0.1,1,0c-0.3-0.4-0.7-0.9-0.7-1.5c0-0.7,0.7-0.5,1.1-0.9c0.4-0.4,0.2-1,0.7-1.3c0.5-0.4,1.4-0.6,1.3-1.3   c-0.1-0.8-2.5-0.6-1.3-1.9c0.2-0.2,0.3-0.2,0.5-0.3c0.2-0.1,0.6-0.1,0.7-0.2c0.3-0.2,0.5-0.5,0.6-0.9c0.1-0.7,0.1-0.7,0.7-1   c0.3-0.1,1.1-0.4,0.7-0.9c-0.3-0.4-0.9,0.2-1.2-0.2c-0.1-0.1-0.1-0.6-0.1-0.7c0-0.4-0.1-0.5,0.3-0.4c0.6,0.1,1,0.5,1.7,0.2   c0.7-0.3,0.3-0.4,0.4-0.9c0-0.4,0.5-1.1,0.7-1.2c0.3-0.1,0.8,0,1.1-0.1c0.4-0.1,0.8-0.2,1.2-0.3c0.7-0.2,1-0.3,1.4-0.9   c0.3-0.6,0.9-1,0.5-1.6c-0.1-0.2-0.4-0.1-0.5-0.4c0-0.3,0.3-0.3,0.1-0.6c-0.2-0.4-1.3-0.5-1-1.1c0.4,0.3,0.4,0.2,0.9,0.3   c0.3,0.1,0.6,0.4,0.9,0.5c0.2,0,0.3-0.1,0.4-0.1c0.2,0,0.4,0,0.5,0c0.5,0,0.7,0,1.1-0.3c0.7-0.6,1.1-1.4,1.6-2.2   c0.2-0.4,0.7-0.6,1-0.9c0.4-0.3,0.6-0.7,0.8-1.2c0.2-0.4,0.3-0.9,0.6-1.2c0.4-0.5,0.7-0.6,0.9-1.2c0.2-0.5,0.1-0.5,0-0.9   c-0.1-0.3,0-0.5,0-0.8c0.1-0.5,0.1-0.5,0.4-1c0.3-0.4,0.4-0.5,0.7-0.7c0.7-0.5,1-0.8,1.8-0.6c-0.1-1,1.7-0.9,2.4-1   c0.6-0.1,0.2-0.2,0.6-0.6c0.3-0.3,0.6-0.2,0.8-0.6c0.2-0.6,0.1-0.7,0.5-1.2c0.2-0.3,0.5-0.8,0.6-1.1c0.1-0.4,0-0.8,0.1-1.2   c0.1-0.4,0.4-0.5,0.4-0.9c0.2-1,0.1-1.9,0.1-2.9c0-0.4,0-1.2,0.2-1.5c0.1-0.1,0.3-0.1,0.4-0.2c0.2-0.2,0.3-0.3,0.4-0.6   c0.3-0.4,0.4-0.9,0.7-1.4c0.2-0.4,0.6-0.5,0.8-0.8C85.7,47.1,86.3,46.1,86.2,45z"/><path d="M41.9,15.4c0.3-0.2,0.6-0.3,0.9-0.4c0.5-0.3,0.8-0.6,1.4-0.4c-1,0.3,0.8,0.5,1,0.5c0.4,0.1,1,0.3,1.5,0.5   c0.4,0.2,0.1,0,0.4,0.3c0.2,0.2,0.2,0.4,0.6,0.6c0.2,0.1,0.7-0.1,0.7,0.3c0,0.1-0.5,0.4-0.5,0.6c0.3,0.2,1.1-0.1,1.4-0.1   c0.6,0,1,0.1,1.5-0.1c0.4-0.1,0.5,0,0.2-0.4c-0.2-0.3-0.8-0.4-1.1-0.4c0.1-0.5-1-0.6-1.4-0.9c-0.3-0.2-0.7-0.8-1.1-0.9   c-0.2-0.1-0.4,0.2-0.6,0.1c-0.3-0.1-0.2-0.2-0.4-0.3c-0.7-0.4-1.9-0.5-2.6-0.4c-0.4,0.1-0.9,0.2-1.3,0.4c-0.4,0.3-0.5,0.7-1,0.9   C41.5,15.6,41.7,15.3,41.9,15.4C42,15.3,41.7,15.3,41.9,15.4z"/><path d="M52.1,17.1c-0.2,0.2-0.4,0.1-0.5,0.4c0.6,0.2,0.6,0.1,0.6,0.7c-0.1-0.1-0.3-0.1-0.4,0c0.1,0.2,0.4,0.4,0.7,0.2   c-0.1,0.6-1.1-0.1-1.5,0c-0.4,0.2-0.2,0.5,0.1,0.6c0.3,0.1,0.9,0,1.3,0c0.7,0,0.7,0.1,1.1,0.6c0.3-0.5,0.3-0.6,0.7-0.7   c0.2-0.1,0.5-0.2,0.7-0.2c0.1,0,0.3,0,0.5,0c0.3,0.1,0.4,0.4,0.6,0.3c0.5-0.2,0-0.7-0.2-0.9c-0.1-0.1-0.1-0.1-0.2-0.1   c-0.2,0-0.2-0.1-0.1-0.2c-0.1,0-0.2-0.1-0.3-0.1c0.1,0-0.6-0.3-0.4-0.2c-0.2-0.1-0.3-0.1-0.5-0.2c-0.5-0.1-0.8-0.1-1.3-0.1   C52.8,17.3,52.2,17,52.1,17.1z"/><path d="M65.5,89.5c-0.4-0.1-1-0.1-1.4-0.1c-0.3,0-0.7,0.2-1,0.1c-0.1,0.1,0,0.2,0.2,0.3c-0.2,0.1-0.2,0.1-0.2,0.3   c-0.3-0.2-0.6,0-0.2,0.3c0.4,0.3,0.7-0.1,1.1-0.2c-0.1,0.6,0.5,0.3,0.8,0.2C64.9,90.3,66.4,89.7,65.5,89.5z"/><path d="M47.9,18.6c-0.9,0-0.6,0.5-0.1,0.8c0.5,0.2,1,0.1,1.5,0C49.1,18.8,48.4,18.6,47.9,18.6z"/><path d="M47,10.7c0.3-0.1,0.8-0.4,1-0.3c0.4,0.2,0,0.7,0.3,1c0.1-0.5,0.3-0.8-0.2-1.1c-0.4-0.3-1,0.1-1.5,0.1   C46.8,10.6,46.9,10.7,47,10.7z"/><path d="M47.7,13c0.1,0.5,0.1,0.5,0.4,0.5c0-0.2-0.2-1.6-0.5-1.6c-0.2,0-0.1,0.2-0.2,0.3C47.1,12.7,47.2,12.6,47.7,13   C47.7,13.5,47.5,12.8,47.7,13z"/><path d="M57.2,19.3c0.4,0,1.5,0.1,1.8-0.3c-0.4-0.2-0.5-0.4-1.1-0.4C57.3,18.6,57.2,18.7,57.2,19.3C57.4,19.3,57.2,19.2,57.2,19.3z   "/><path d="M52.1,15.7c-0.2,0.3-0.6,0.1-0.7,0.6C51.9,16.3,52.2,16.3,52.1,15.7C52,15.9,52.2,16.1,52.1,15.7z"/><path d="M42.9,15.6c0,0.4,0.8,0.2,0.6-0.2C43.4,15,42.9,15.2,42.9,15.6z"/><path d="M50.9,14.5c0.1,0,0.2,0.1,0.2,0.1c-0.1,0.2-0.3,0.2-0.3,0.4c0.5-0.2,0.7-0.9-0.1-0.7C50.9,14.4,50.9,14.4,50.9,14.5z"/><path d="M62.1,21.2c0,0.4,0.4-0.1,0.7-0.1c-0.1-0.1-0.2-0.3-0.3-0.4C62.1,20.9,62,20.8,62.1,21.2z"/><path d="M49,11.8c0.3,0.2,0.3,0.3,0,0.5c0.1,0,0.2,0.1,0.3,0.1c0.2-0.6-0.1-0.7-0.6-1C48.7,11.7,48.8,11.8,49,11.8z"/><path d="M60.3,93.1c0-0.1,0.1-0.1,0.1-0.2c-0.3,0-0.7,0-0.9,0.2C59.7,93.2,60,93.1,60.3,93.1z"/><path d="M62.6,22.4c-0.2,0.2,0.2,0.5,0.4,0.5C63,22.8,62.8,22.1,62.6,22.4z"/><path d="M50,13.4c-0.1,0.4,0.3,0.8,0.5,1C50.5,14,50.3,13.7,50,13.4C49.9,13.7,50,13.5,50,13.4z"/><path d="M59.7,26.4c0.1,0,1,0.1,0.6-0.2C60.2,26.1,59.7,26.2,59.7,26.4C59.8,26.4,59.7,26.2,59.7,26.4z"/><path d="M50.1,13c-0.1-0.2-0.3-0.6-0.6-0.6C49.7,12.8,49.7,13.1,50.1,13C50,12.8,50,13,50.1,13z"/><path d="M62.4,21.5c-0.2,0.2-0.2,0.2,0,0.6C62.7,22,62.7,21.8,62.4,21.5z"/><path d="M63,23.6c0-0.1,0-0.3,0-0.4C62.6,23.1,62.6,23.8,63,23.6C62.9,23.4,62.8,23.6,63,23.6z"/><path d="M55.6,24.8c-0.3,0.2,0.1,0.6,0.3,0.4C55.9,25,55.6,25,55.6,24.8C55.4,24.9,55.6,25,55.6,24.8z"/><path d="M53.3,15.5c0-0.3-0.2-0.3-0.4-0.3C53,15.5,53.1,15.5,53.3,15.5z"/><path d="M44.1,29.9c0.1,0.2,0.2,0.2,0.3,0.1c-0.1-0.1-0.1-0.3-0.2-0.4C44.2,29.7,44.1,29.8,44.1,29.9z"/><path d="M22,15.6c0.1,0.1,0.2,0.2,0.4,0.1c-0.1-0.1-0.2-0.2-0.2-0.3C22,15.4,22,15.5,22,15.6z"/><path d="M64.1,24.3c0.2,0.1-0.1-0.4-0.1-0.5C64,24.1,63.9,24.1,64.1,24.3z"/><path d="M14.3,8.7C14.2,9,14.2,9,14.4,9.2C14.5,8.9,14.5,8.8,14.3,8.7z"/><path d="M56.1,25c0.1,0.1,0.1,0.2,0.2,0.3C56.6,25.2,56.3,24.8,56.1,25C56.2,25.1,56.2,24.9,56.1,25z"/><path d="M39.9,21.1c0.2-0.1,0.3-0.2,0.5-0.3C40,20.7,39.9,20.8,39.9,21.1z"/><path d="M63.3,25.9C63,26,63,26,62.9,26.2C63.2,26.2,63.2,26.2,63.3,25.9z"/><path d="M62.6,23.8c-0.2,0.2-0.2,0.2,0,0.4C62.7,24.1,62.8,24,62.6,23.8z"/><path d="M52.2,14.7c-0.1,0-0.2-0.1-0.3,0.1c0.2,0,0.3,0.1,0.4,0.1C52.4,14.8,52.3,14.7,52.2,14.7z"/><path d="M59.4,19.6c0.1,0,0.2,0,0.3-0.1C59.7,19.1,59.1,19.6,59.4,19.6z"/><path d="M59.9,18.7c-0.2-0.1-0.3-0.1-0.5,0.2C59.6,18.9,59.8,18.9,59.9,18.7z"/><path d="M47.9,12.2c0.1,0,0.3,0,0.4,0C48.1,11.9,48.1,11.9,47.9,12.2z"/><path d="M46.9,29.1c0.1-0.1,0.1-0.2,0-0.3C46.5,28.9,46.8,29.2,46.9,29.1z"/><path d="M62,20c-0.3,0.1,0.2,0.3,0.2,0.3C62.2,20.1,62.2,20,62,20z"/><path d="M62.2,25c-0.2,0.1-0.2,0.3-0.1,0.4C62.2,25.3,62.5,25.1,62.2,25C62.1,25.1,62.3,25.1,62.2,25z"/><path d="M62.2,19.8C62.3,19.2,61.6,19.6,62.2,19.8C62.2,19.6,62,19.7,62.2,19.8z"/><path d="M38.8,20c0.1-0.1,0.2-0.2,0.1-0.4C38.6,19.8,38.6,19.8,38.8,20z"/><path d="M44.5,18c0.2,0.1,0.3,0.1,0.4-0.1C44.8,17.8,44.6,17.7,44.5,18C44.6,18,44.6,17.8,44.5,18z"/><path d="M50.8,13.2c0.1-0.1,0.1-0.2,0-0.3C50.6,13,50.7,13.3,50.8,13.2z"/><path d="M50.4,81.7c0.1,0,0.2,0,0.3,0C50.5,81.5,50.5,81.5,50.4,81.7z"/><path d="M58.9,26.3c0,0-0.1,0.1-0.1,0.1c0,0.1,0.1,0.2,0.3,0.1C59.1,26.3,59,26.3,58.9,26.3z"/><path d="M54.9,24.9c0-0.2-0.1-0.2-0.2-0.3C54.7,24.9,54.7,24.9,54.9,24.9z"/><path d="M49.7,13.7c-0.1-0.1-0.2-0.2-0.3-0.3C49.3,13.6,49.5,13.7,49.7,13.7C49.6,13.6,49.5,13.7,49.7,13.7z"/><path d="M61.4,20c-0.1-0.3-0.1-0.3-0.3-0.2C61.2,20,61.2,20.1,61.4,20z"/><path d="M18.1,18.3c-0.2,0.1,0,0.3,0.2,0.2C18.3,18.4,18.3,18.3,18.1,18.3z"/><path d="M61.1,18.8C61,18.9,60.9,19,60.8,19C61.1,19.1,61.1,19.1,61.1,18.8z"/><path d="M62.5,21.2c-0.1,0.1-0.1,0.2,0.1,0.3C62.8,21.3,62.7,21.3,62.5,21.2C62.5,21.2,62.6,21.2,62.5,21.2z"/><path d="M61.7,20.6c0.2,0,0-0.3,0-0.2C61.7,20.4,61.6,20.6,61.7,20.6z"/><path d="M50.3,82.9c0,0-0.1-0.1-0.1-0.1c-0.1,0.2-0.1,0.1,0.1,0.3C50.3,83,50.3,82.9,50.3,82.9z"/><path d="M44.2,24.8c0,0,0,0.1,0.1,0.1C44.4,24.7,44.2,24.7,44.2,24.8z"/></g><text x="0" y="115" fill="#000000" font-size="5px" font-weight="bold" font-family="'Helvetica Neue', Helvetica, Arial-Unicode, Arial, Sans-serif">Created by Buenos Dias</text><text x="0" y="120" fill="#000000" font-size="5px" font-weight="bold" font-family="'Helvetica Neue', Helvetica, Arial-Unicode, Arial, Sans-serif">from the Noun Project</text></svg>